HIERARCHY
ROOT Hips
{
 OFFSET 0.000000 0.000000 0.000000
 CHANNELS 6 Xposition Yposition Zposition Yrotation Xrotation Zrotation
 JOINT Chest
 {
  OFFSET 0.000000 9.585900 0.002600
  CHANNELS 3 Yrotation Xrotation Zrotation
  JOINT Chest2
  {
   OFFSET 0.000000 9.601200 -0.005300
   CHANNELS 3 Yrotation Xrotation Zrotation
   JOINT Chest3
   {
    OFFSET 0.000000 9.561800 0.000000
    CHANNELS 3 Yrotation Xrotation Zrotation
    JOINT Chest4
    {
     OFFSET 0.000000 9.552100 0.000000
     CHANNELS 3 Yrotation Xrotation Zrotation
     JOINT Neck
     {
      OFFSET 0.000000 14.453000 0.000000
      CHANNELS 3 Yrotation Xrotation Zrotation
      JOINT Head
      {
       OFFSET 0.000000 8.936500 -0.011300
       CHANNELS 3 Yrotation Xrotation Zrotation
       End Site
       {
        OFFSET 0.000000 17.073600 -0.006000
       }
      }
     }
     JOINT RightCollar
     {
      OFFSET -2.921100 9.558500 0.000000
      CHANNELS 3 Yrotation Xrotation Zrotation
      JOINT RightShoulder
      {
       OFFSET -13.519700 0.000000 0.000000
       CHANNELS 3 Yrotation Xrotation Zrotation
       JOINT RightElbow
       {
        OFFSET 0.000000 -29.696600 0.000000
        CHANNELS 3 Yrotation Xrotation Zrotation
        JOINT RightWrist
        {
         OFFSET 0.000000 -24.004700 0.000000
         CHANNELS 3 Yrotation Xrotation Zrotation
         End Site
         {
          OFFSET 0.000000 -17.728500 0.000000
         }
        }
       }
      }
     }
     JOINT LeftCollar
     {
      OFFSET 2.921100 9.558500 0.000000
      CHANNELS 3 Yrotation Xrotation Zrotation
      JOINT LeftShoulder
      {
       OFFSET 13.519700 0.000000 0.000000
       CHANNELS 3 Yrotation Xrotation Zrotation
       JOINT LeftElbow
       {
        OFFSET 0.000000 -29.696600 0.000000
        CHANNELS 3 Yrotation Xrotation Zrotation
        JOINT LeftWrist
        {
         OFFSET 0.000000 -24.004700 0.000000
         CHANNELS 3 Yrotation Xrotation Zrotation
         End Site
         {
          OFFSET 0.000000 -17.728500 0.000000
         }
        }
       }
      }
     }
    }
   }
  }
 }
 JOINT RightHip
 {
  OFFSET -7.771700 -0.012900 -0.001300
  CHANNELS 3 Yrotation Xrotation Zrotation
  JOINT RightKnee
  {
   OFFSET 0.000000 -40.869800 0.001200
   CHANNELS 3 Yrotation Xrotation Zrotation
   JOINT RightAnkle
   {
    OFFSET 0.000000 -39.717900 0.002100
    CHANNELS 3 Yrotation Xrotation Zrotation
    JOINT RightToe
    {
     OFFSET 0.000000 -4.965400 11.033500
     CHANNELS 3 Yrotation Xrotation Zrotation
     End Site
     {
      OFFSET 0.000000 -1.423100 5.872300
     }
    }
   }
  }
 }
 JOINT LeftHip
 {
  OFFSET 7.771700 -0.012900 -0.001300
  CHANNELS 3 Yrotation Xrotation Zrotation
  JOINT LeftKnee
  {
   OFFSET 0.000000 -40.869800 0.001200
   CHANNELS 3 Yrotation Xrotation Zrotation
   JOINT LeftAnkle
   {
    OFFSET 0.000000 -39.717900 0.002100
    CHANNELS 3 Yrotation Xrotation Zrotation
    JOINT LeftToe
    {
     OFFSET 0.000000 -4.965400 11.033500
     CHANNELS 3 Yrotation Xrotation Zrotation
     End Site
     {
      OFFSET 0.000000 -1.423100 5.872300
     }
    }
   }
  }
 }
}
MOTION
Frames: 5
Frame Time: 0.008333
-159.783522 49.209529 18.020400 174.932578 -30.357874 -3.246170 -0.060586 19.983500 2.775138 -0.071497 2.478255 0.304071 -0.108582 4.071380 0.499373 -0.225649 17.156045 2.097127 7.253603 16.050528 -1.616525 14.053786 -5.453355 -5.549247 -0.935520 -4.923191 -4.488079 4.977033 -8.060965 -12.705753 -38.311786 -43.092155 91.088264 4.698324 6.589374 -11.901407 0.164863 -4.275929 3.391106 -7.217202 -1.789924 11.841476 79.569659 -74.298099 -116.445908 2.655636 6.201200 2.942194 -6.554749 -54.587010 -5.158069 178.120807 84.629809 -169.312259 -28.996986 -2.336884 -5.562941 0.015647 -12.804999 -0.442820 -11.899586 -56.260163 19.580233 -74.030239 65.067656 -79.139100 30.840700 6.541945 16.715890 -0.022456 -0.428690 -0.024321
-159.783342 49.209829 18.020769 174.934112 -30.375720 -3.248338 -0.065249 19.991916 2.770026 -0.070172 2.481705 0.305653 -0.106863 4.074737 0.501026 -0.226817 17.152640 2.096847 7.249007 16.042836 -1.618107 14.062432 -5.455099 -5.547218 -0.950373 -4.930467 -4.485351 4.990622 -8.050814 -12.703968 -38.312539 -43.079552 91.088174 4.684977 6.579595 -11.896102 0.152943 -4.283689 3.388799 -7.201620 -1.784867 11.843137 79.634506 -74.271312 -116.530150 2.635725 6.270350 2.939516 -6.558687 -54.566648 -5.152106 178.215225 84.640588 -169.208260 -29.052159 -2.343743 -5.562809 0.062142 -12.802106 -0.452135 -11.897532 -56.247255 19.557893 -74.049059 65.082923 -79.145350 30.857292 6.542766 16.714447 -0.036442 -0.437127 -0.030286
-159.782665 49.209269 18.022459 174.931073 -30.383836 -3.251566 -0.062051 19.996430 2.772994 -0.071877 2.478282 0.304065 -0.111259 4.067749 0.497907 -0.231035 17.152844 2.095812 7.253809 16.041757 -1.618132 14.072101 -5.449627 -5.542427 -0.952486 -4.933964 -4.478937 4.992105 -8.041461 -12.705206 -38.299299 -43.062673 91.086896 4.633721 6.553588 -11.908628 0.152362 -4.293185 3.381644 -7.185110 -1.783893 11.843636 79.577259 -74.263799 -116.485472 2.630507 6.302338 2.935698 -6.564775 -54.558605 -5.147512 178.219648 84.642758 -169.201285 -29.029026 -2.338798 -5.580370 0.050986 -12.804991 -0.443271 -11.902602 -56.240891 19.557338 -74.067515 65.087784 -79.154786 30.853650 6.537713 16.703759 -0.034867 -0.435026 -0.028722
-159.780410 49.209659 18.022527 174.927761 -30.403586 -3.262562 -0.062212 20.002915 2.772103 -0.072360 2.478577 0.304033 -0.111847 4.068424 0.497925 -0.234162 17.153912 2.095123 7.266643 16.045236 -1.612477 14.077778 -5.451805 -5.540083 -0.953070 -4.934529 -4.469196 4.989958 -8.041172 -12.711580 -38.285499 -43.016398 91.081807 4.660812 6.551642 -11.900917 0.163595 -4.288158 3.382765 -7.179555 -1.784852 11.846294 79.579447 -74.255422 -116.496892 2.621752 6.316690 2.927258 -6.586205 -54.534252 -5.127003 178.275738 84.647203 -169.141053 -29.014101 -2.341124 -5.592613 0.073110 -12.805238 -0.447673 -11.916634 -56.219890 19.571252 -74.088029 65.091375 -79.169708 30.849565 6.526784 16.694059 -0.035293 -0.430539 -0.027283
-159.776836 49.210733 18.021467 174.916917 -30.432215 -3.275975 -0.054965 20.016217 2.776457 -0.071921 2.478768 0.304187 -0.111153 4.068627 0.497846 -0.230838 17.154206 2.095936 7.273894 16.050843 -1.605614 14.079788 -5.464466 -5.539013 -0.971448 -4.943890 -4.464646 4.993301 -8.035124 -12.711753 -38.262921 -42.996106 91.083618 4.638590 6.540496 -11.904701 0.161345 -4.291674 3.383581 -7.170019 -1.804956 11.845403 79.547137 -74.224191 -116.487971 2.610252 6.345768 2.942160 -6.603277 -54.499278 -5.096666 178.345623 84.653424 -169.065696 -29.008627 -2.343089 -5.603788 0.111095 -12.805119 -0.453783 -11.927164 -56.188368 19.594571 -74.108457 65.092284 -79.186299 30.849201 6.517654 16.688195 -0.038290 -0.430191 -0.026521
